inDegrees=yes
name=ik_lifting_orientations
DataType=double
version=3
OpenSimVersion=4.5-2024-01-10-34fd6af
endheader
time	pelvis_tilt	pelvis_list	pelvis_rotation	pelvis_tx	pelvis_ty	pelvis_tz	hip_flexion_r	hip_adduction_r	hip_rotation_r	knee_angle_r	knee_angle_r_beta	ankle_angle_r	subtalar_angle_r	mtp_angle_r	hip_flexion_l	hip_adduction_l	hip_rotation_l	knee_angle_l	knee_angle_l_beta	ankle_angle_l	subtalar_angle_l	mtp_angle_l	lumbar_extension	lumbar_bending	lumbar_rotation	arm_flex_r	arm_add_r	arm_rot_r	elbow_flex_r	pro_sup_r	wrist_flex_r	wrist_dev_r	arm_flex_l	arm_add_l	arm_rot_l	elbow_flex_l	pro_sup_l	wrist_flex_l	wrist_dev_l
1.48	-0.4253210405301775	34.98622315314373	-91.72280765819816	0	0.9399999998679526	0	45.06839726415667	-10.63072899908847	0	60.20394624575379	1.050757084682083	-5.216952126499504	0	0	45.06839726415667	-10.63072899908847	0	60.20394624575379	1.050757084682083	-5.216952126499504	0	0	65.01881836455451	1.610654869407429	-2.177917124192815	-25.15381472288822	-19.98043959157872	4.822365259114087	32.46219226239946	1.943835603794382	0	0	0	-10.48073932670167	0	88.09656024065036	1.943835603794382	0	0
1.49	-0.3416388687244701	34.41466493121342	-91.84182988674669	0	0.9399999998679526	0	45.0672657927113	-10.60659941280718	0	60.20059800371317	1.05069864683432	-5.207177782639682	0	0	45.0672657927113	-10.60659941280718	0	60.20059800371317	1.05069864683432	-5.207177782639682	0	0	63.71395347938267	1.637328970778928	-2.086180207392389	-24.60349255896184	-20.77181827714474	4.944238985063892	34.9468067913562	1.919094732725082	0	0	0	-10.52654736161744	0	88.12078454412243	1.919094732725082	0	0
1.5	-0.2963585778688166	33.80442294076344	-91.79810917995789	0	0.9399999998679526	0	45.06632420363034	-10.58663362505349	0	60.19781835342172	1.05065013278468	-5.199096381893398	0	0	45.06632420363034	-10.58663362505349	0	60.19781835342172	1.05065013278468	-5.199096381893398	0	0	62.4260301040833	1.54141545593323	-2.045246758969963	-23.97149994689427	-21.56861273168403	5.278409758335264	37.9672251082959	1.898474283675798	0	0	0	-10.56476949757782	0	88.14097445894832	1.898474283675798	0	0
1.51	-0.1840670645258545	33.11306050989906	-91.81341933207925	0	0.9399999998679526	0	45.06547526145248	-10.56919481298825	0	60.19529452322912	1.050606083638058	-5.192105023746936	0	0	45.06547526145248	-10.56919481298825	0	60.19529452322912	1.050606083638058	-5.192105023746936	0	0	61.0811416828488	1.417370929359519	-2.033189096858624	-23.23284328491822	-22.43905608240233	5.658057554782943	41.25939290840522	1.879771006706263	0	0	0	-10.59958419519734	0	88.15928723906545	1.879771006706263	0	0
1.52	-0.1521796211788204	32.42531602040621	-91.825407571985	0	0.9399999998679526	0	45.06465493988718	-10.5523645685412	0	60.19287024548797	1.050563772009492	-5.185360778135123	0	0	45.06465493988718	-10.5523645685412	0	60.19287024548797	1.050563772009492	-5.185360778135123	0	0	59.71888423565544	1.314365270575934	-2.116552863701167	-22.35213917118028	-23.40528001952363	5.875722956309986	44.92612257480306	1.86169754403892	0	0	0	-10.63322471496711	0	88.17698335435335	1.86169754403892	0	0
1.53	-0.1913335094472317	31.74322995926464	-91.71701931824637	0	0.9399999998679526	0	45.06393912341438	-10.53762194811677	0	60.19077261050374	1.050527161372513	-5.179449169768208	0	0	45.06393912341438	-10.53762194811677	0	60.19077261050374	1.050527161372513	-5.179449169768208	0	0	58.45120339239171	1.24659462274151	-2.221154710688658	-21.46616734287314	-24.65919870313142	5.821114697729873	49.22510287273332	1.845944575189451	0	0	0	-10.6625186650609	0	88.19240742279101	1.845944575189451	0	0
1.54	-0.2199305626036246	31.06436866649329	-91.61200129237766	0	0.9399999998679526	0	45.06326417857634	-10.52376083791013	0	60.18880421827654	1.050492806447177	-5.17389862371635	0	0	45.06326417857634	-10.52376083791013	0	60.18880421827654	1.050492806447177	-5.17389862371635	0	0	57.18287996850441	1.178207887992354	-2.317702455172912	-20.49900994935081	-25.81197838291352	5.660216305083771	54.13401137633672	1.831088721395392	0	0	0	-10.69014441064341	0	88.2069531068403	1.831088721395392	0	0
1.55	-0.2510059728321461	30.24062779252453	-91.48500549964592	0	0.9399999998679526	0	45.06256947897972	-10.50973662736296	0	60.18677417093284	1.050457375437059	-5.168313284993996	0	0	45.06256947897972	-10.50973662736296	0	60.18677417093284	1.050457375437059	-5.168313284993996	0	0	55.54677976766355	1.085391507219474	-2.368185484934968	-19.34997875108072	-26.6012608187497	5.278056370227569	59.08511368010934	1.815751110680171	0	0	0	-10.71872634164488	0	88.22197049288107	1.815751110680171	0	0
1.56	-0.3170927215967049	29.27187776020297	-91.42828003609283	0	0.9399999998679526	0	45.06189659371098	-10.49640104870567	0	60.18480283082357	1.050422969061475	-5.163032914980224	0	0	45.06189659371098	-10.49640104870567	0	60.18480283082357	1.050422969061475	-5.163032914980224	0	0	53.69150146908672	1.131874636202127	-2.408460050789708	-18.22582126849873	-27.22555633100995	4.767152240817564	64.36788025174108	1.800845311840432	0	0	0	-10.74656811538291	0	88.23656508620684	1.800845311840432	0	0
1.57	-0.3277332894273336	28.305725760069	-91.41429645156192	0	0.9399999998679526	0	45.06186237156263	-10.49544372399029	0	60.18472258874579	1.050421568573019	-5.162623005555318	0	0	45.06186237156263	-10.49544372399029	0	60.18472258874579	1.050421568573019	-5.162623005555318	0	0	51.85293579158567	1.154323070871972	-2.390247456520863	-17.01575780432838	-27.79741420509277	4.864153217292455	64.66330818126475	1.800151920295187	0	0	0	-10.74777516409166	0	88.23724399633332	1.800151920295187	0	0
1.58	-0.411745445380253	27.36555556712423	-91.2939164269834	0	0.9399999998679526	0	45.06105937542717	-10.48003134446035	0	60.18235829829576	1.050380303920193	-5.156585971979906	0	0	45.06105937542717	-10.48003134446035	0	60.18235829829576	1.050380303920193	-5.156585971979906	0	0	50.05893477008181	1.182616129197504	-2.552675375134387	-15.97385161386089	-28.40483878848389	4.552821478020803	68.14260845086086	1.782268134642983	0	0	0	-10.7813010258484	0	88.2547544082452	1.782268134642983	0	0
1.59	-0.5221569545595885	26.42941837331049	-91.17467977317942	0	0.9399999998679526	0	45.06097166060736	-10.47764219926253	0	60.18215216162801	1.050376706156631	-5.155572295032542	0	0	45.06097166060736	-10.47764219926253	0	60.18215216162801	1.050376706156631	-5.155572295032542	0	0	48.09628015978016	1.237756346086304	-2.762517604574694	-14.63695992832138	-28.79026000883056	4.902211146710393	68.73940742710273	1.780483286778221	0	0	0	-10.78441680243194	0	88.25650198053742	1.780483286778221	0	0
1.6	-0.5698789313462216	25.35503012938849	-91.31281071446868	0	0.9399999998679526	0	45.06089547176966	-10.47557978004806	0	60.1819727069329	1.050373574081344	-5.154699036388132	0	0	45.06089547176966	-10.47557978004806	0	60.1819727069329	1.050373574081344	-5.154699036388132	0	0	45.97111006689062	1.504070844118444	-2.814403597878943	-13.29891730085965	-29.25993079397567	5.26727196114531	69.3931686995367	1.778931128851023	0	0	0	-10.78712877546881	0	88.2580217226478	1.778931128851023	0	0
1.61	-0.6489261767008747	24.23701840756877	-91.23736975707767	0	0.9399999998679526	0	45.06085699655829	-10.4745372371439	0	60.18188204134719	1.050371991668355	-5.154257376194834	0	0	45.06085699655829	-10.4745372371439	0	60.18188204134719	1.050371991668355	-5.154257376194834	0	0	43.70467481718104	1.61404310788824	-2.892041890679588	-11.71320133819935	-29.19329688005724	5.55574416811919	69.62454195538476	1.778147140320106	0	0	0	-10.78849899206855	0	88.25878933810932	1.778147140320106	0	0
